<svg xmlns="http://www.w3.org/2000/svg" viewBox="0 0 24.95 24.96"><defs><style>.cls-1{fill:#93dede;}</style></defs><title>Asset 1</title><g id="Layer_2" data-name="Layer 2"><g id="Layer_1-2" data-name="Layer 1"><path class="cls-1" d="M25,3.27V21.7c0,.06,0,.12,0,.18a3.55,3.55,0,0,1-2,2.7,7.86,7.86,0,0,1-1.19.38H15.4V16.14h3.71l.73-4.4H15.41v-3h4.41V4.39H15.49A4.38,4.38,0,0,0,11,8.87c0,.87,0,1.74,0,2.6v.29H8.1v4.38H11V25H3.27l-.12,0A3.63,3.63,0,0,1,0,21.26Q0,12.49,0,3.71A3.84,3.84,0,0,1,.21,2.5,3.6,3.6,0,0,1,3.76,0H20.3c.37,0,.75,0,1.12,0a3.54,3.54,0,0,1,3.14,2A7.23,7.23,0,0,1,25,3.27Z"/></g></g></svg>