<svg xmlns="http://www.w3.org/2000/svg" viewBox="0 0 24.95 24.96"><defs><style>.cls-1{fill:#93dede;}</style></defs><title>Asset 5</title><g id="Layer_2" data-name="Layer 2"><g id="Layer_1-2" data-name="Layer 1"><path class="cls-1" d="M25,3V21.94c0,.06,0,.12,0,.18a3.36,3.36,0,0,1-2.41,2.7c-.19.06-.38.09-.57.14H3a.33.33,0,0,0-.13,0A3.39,3.39,0,0,1,0,21.56V3.38A3.4,3.4,0,0,1,3.38,0h18.2a3.38,3.38,0,0,1,3.24,2.48C24.87,2.66,24.91,2.84,25,3ZM13.29,11c0-.22,0-.45,0-.67a.48.48,0,0,0-.53-.53H10.54a.49.49,0,0,0-.55.56V19.7c0,.4.18.58.58.58h2c.54,0,.68-.14.68-.7V14.91a3,3,0,0,1,.46-1.67,1.61,1.61,0,0,1,1.69-.71,1.36,1.36,0,0,1,1.22,1.07,6.86,6.86,0,0,1,.19,1.56c0,1.5,0,3,0,4.51,0,.44.16.6.6.61h2.17c.43,0,.6-.18.6-.61,0-1.7,0-3.41,0-5.11A11.9,11.9,0,0,0,20,12.41a3.13,3.13,0,0,0-2.31-2.57,4.88,4.88,0,0,0-1.2-.16A3.53,3.53,0,0,0,13.29,11ZM5.21,15c0,1.54,0,3.08,0,4.63a.53.53,0,0,0,.61.61h2c.44,0,.64-.19.64-.62V10.45c0-.43-.19-.62-.63-.62h-2c-.47,0-.64.19-.65.65ZM9,6.82A2.13,2.13,0,1,0,6.83,8.93,2.12,2.12,0,0,0,9,6.82Z"/></g></g></svg>