<svg xmlns="http://www.w3.org/2000/svg" viewBox="0 0 20 20"><defs><style>.cls-1{fill:#76dc78;}</style></defs><title>Asset 8</title><g id="Layer_2" data-name="Layer 2"><g id="Layer_1-2" data-name="Layer 1"><path class="cls-1" d="M18.9,13.76A12.67,12.67,0,0,1,15,13.13a1.09,1.09,0,0,0-1.12.27l-1.75,2.19A16.83,16.83,0,0,1,4.46,8L6.62,6.16A1.16,1.16,0,0,0,6.89,5,12.38,12.38,0,0,1,6.27,1.1,1.11,1.11,0,0,0,5.17,0H1.32C.72,0,0,.27,0,1.1A19.06,19.06,0,0,0,18.9,20,1.16,1.16,0,0,0,20,18.69V14.86A1.11,1.11,0,0,0,18.9,13.76Z"/></g></g></svg>