<svg xmlns="http://www.w3.org/2000/svg" viewBox="0 0 24.96 24.97"><defs><style>.cls-1{fill:#93dede;}</style></defs><title>Asset 2</title><g id="Layer_2" data-name="Layer 2"><g id="Layer_1-2" data-name="Layer 1"><path class="cls-1" d="M25,2.35V22.63a.5.5,0,0,0-.05.13,2.58,2.58,0,0,1-1.34,1.86,7.7,7.7,0,0,1-.95.35H2.35s0,0-.06,0A2.74,2.74,0,0,1,0,22.11C0,15.7,0,9.28,0,2.86a3.36,3.36,0,0,1,.08-.77A2.66,2.66,0,0,1,2.79,0H19.31c1,0,2,0,3,0a2.62,2.62,0,0,1,2.43,1.63A5.36,5.36,0,0,1,25,2.35ZM13.44,10.17l-.17-.23L9.18,4a.39.39,0,0,0-.38-.2H4l6.64,9.66L4,21.17c.47,0,.88,0,1.28,0A.41.41,0,0,0,5.63,21q2.73-3.19,5.48-6.37a1.62,1.62,0,0,1,.18-.2l.18.26L15.79,21a.36.36,0,0,0,.34.19h4.61l.23,0-6.87-10,6.33-7.36c-.48,0-.88,0-1.29,0A.48.48,0,0,0,18.8,4Q16.88,6.16,15,8.39Z"/><path class="cls-1" d="M18.92,20.09c-.75,0-1.46,0-2.17,0a.39.39,0,0,1-.25-.18c-1.49-2.11-3-4.24-4.45-6.36L6.2,5.18c0-.07-.09-.15-.16-.24l.24,0H8.11a.36.36,0,0,1,.34.17L18.8,19.9Z"/></g></g></svg>