<svg xmlns="http://www.w3.org/2000/svg" viewBox="0 0 24.95 24.96"><defs><style>.cls-1{fill:#93dede;}</style></defs><title>Asset 3</title><g id="Layer_2" data-name="Layer 2"><g id="Layer_1-2" data-name="Layer 1"><path class="cls-1" d="M21.93,25H3a.33.33,0,0,0-.13,0A3.39,3.39,0,0,1,0,21.56V3.38A3.4,3.4,0,0,1,3.38,0h18.2a3.38,3.38,0,0,1,3.24,2.48c.05.18.09.36.13.54V21.94c0,.06,0,.12,0,.18a3.36,3.36,0,0,1-2.41,2.7C22.31,24.88,22.12,24.91,21.93,25ZM20.25,12.43c-.06-.5-.09-1-.19-1.52A7.73,7.73,0,1,0,5.48,15.72a.8.8,0,0,1,0,.46c-.24,1.21-.5,2.41-.74,3.62-.08.38.08.53.45.44l3.6-.84a.66.66,0,0,1,.39,0,7.78,7.78,0,0,0,11-7Z"/><path class="cls-1" d="M6.85,18.13c.1-.51.17-1,.3-1.44A2.41,2.41,0,0,0,7,14.89a6,6,0,1,1,6.37,3.52,6,6,0,0,1-3.81-.7.74.74,0,0,0-.6-.07C8.26,17.81,7.58,18,6.85,18.13Zm7.55-1.95A2.2,2.2,0,0,0,16.51,15a.57.57,0,0,0-.33-.91q-.46-.15-1-.27c-.73-.2-.74-.35-1.38.33a.51.51,0,0,1-.72.12,7.82,7.82,0,0,1-2.43-2.15.52.52,0,0,1,0-.71A2.07,2.07,0,0,0,11,11a.83.83,0,0,0,.07-.53c-.19-.5-.42-1-.65-1.49a.51.51,0,0,0-.74-.23,2.28,2.28,0,0,0-1.1,1.72,3.32,3.32,0,0,0,.53,1.92,9,9,0,0,0,3.6,3.33A3.85,3.85,0,0,0,14.4,16.18Z"/></g></g></svg>