<svg xmlns="http://www.w3.org/2000/svg" viewBox="0 0 24.95 24.96"><defs><style>.cls-1{fill:#93dede;}</style></defs><title>Asset 6</title><g id="Layer_2" data-name="Layer 2"><g id="Layer_1-2" data-name="Layer 1"><path class="cls-1" d="M23,25H2l-.09,0A2.3,2.3,0,0,1,0,22.56V2.39a2.82,2.82,0,0,1,.08-.65A2.3,2.3,0,0,1,2.43,0H16.22c2.13,0,4.26,0,6.38,0a2.23,2.23,0,0,1,2.15,1.37A4.48,4.48,0,0,1,25,2V23a1,1,0,0,1-.05.16,2.31,2.31,0,0,1-1.69,1.77ZM12.4,18.25l5-.32a3.17,3.17,0,0,0,1.69-.64,1.88,1.88,0,0,0,.8-1.15,19.42,19.42,0,0,0,0-7.21A1.92,1.92,0,0,0,19.47,8a2.52,2.52,0,0,0-1.36-.81,13.06,13.06,0,0,0-1.76-.24A49,49,0,0,0,7.53,7a3.32,3.32,0,0,0-1.69.63A2,2,0,0,0,5,8.91a19.67,19.67,0,0,0,0,7,2.08,2.08,0,0,0,.71,1.29,2.8,2.8,0,0,0,1.6.72C9,18,10.74,18.14,12.4,18.25Z"/><path class="cls-1" d="M15.48,12.48l-4.85,3v-6Z"/></g></g></svg>